HIERARCHY
ROOT Hips
{
	OFFSET 0.000000 0.000000 0.000000
	CHANNELS 6 Xposition Yposition Zposition Zrotation Yrotation Xrotation 
	JOINT LHipJoint
	{
		OFFSET 0.000000 0.000000 0.000000
		CHANNELS 3 Zrotation Yrotation Xrotation
		JOINT LeftUpLeg
		{
			OFFSET 1.363060 -1.794630 0.839290
			CHANNELS 3 Zrotation Yrotation Xrotation
			JOINT LeftLeg
			{
				OFFSET 2.448110 -6.726130 0.000000
				CHANNELS 3 Zrotation Yrotation Xrotation
				JOINT LeftFoot
				{
					OFFSET 2.562200 -7.039590 0.000000
					CHANNELS 3 Zrotation Yrotation Xrotation
					JOINT LeftToeBase
					{
						OFFSET 0.157640 -0.433110 2.322550
						CHANNELS 3 Zrotation Yrotation Xrotation
						End Site
						{
							OFFSET 0.000000 0.000000 0.000000
						}
					}
				}
			}
		}
	}
	JOINT RHipJoint
	{
		OFFSET 0.000000 0.000000 0.000000
		CHANNELS 3 Zrotation Yrotation Xrotation
		JOINT RightUpLeg
		{
			OFFSET -1.305520 -1.794630 0.839290
			CHANNELS 3 Zrotation Yrotation Xrotation
			JOINT RightLeg
			{
				OFFSET -2.542530 -6.985550 0.000000
				CHANNELS 3 Zrotation Yrotation Xrotation
				JOINT RightFoot
				{
					OFFSET -2.568260 -7.056230 0.000000
					CHANNELS 3 Zrotation Yrotation Xrotation
					JOINT RightToeBase
					{
						OFFSET -0.164730 -0.452590 2.363150
						CHANNELS 3 Zrotation Yrotation Xrotation
						End Site
						{
							OFFSET 0.000000 0.000000 0.000000
						}
					}
				}
			}
		}
	}
}
MOTION
Frames: 33
Frame Time: 0.008333
5.371871 15.250269 2.264523 -138.130307 -83.524391 -163.372747 -8.831491 -0.125321 3.235658 -9.038574 -8.668682 -90.161534 -2.107567 4.317463 56.089258 3.034395 4.568375 -27.633336 -2.143400 0.000000 -26.823600 8.244256 0.387303 2.989937 16.382034 7.481973 -94.946611 3.518332 -6.986878 56.346924 -0.273429 3.614475 -15.122104 0.032200 -0.000000 -73.035299
5.293957 15.154226 2.244781 -140.481370 -83.741928 -160.708139 -8.872408 -0.157988 3.316966 -8.888099 -9.207319 -90.932380 -1.938272 4.446997 57.754376 3.159095 4.859894 -28.532905 -2.343400 0.000000 -27.271100 8.222978 0.560956 3.069539 15.490551 7.468306 -95.836107 3.259360 -7.101116 58.017641 -0.323435 3.690262 -16.025975 0.044300 0.000000 -72.262101
5.216901 15.050622 2.224372 -143.384124 -83.988396 -157.492572 -8.923675 -0.205078 3.396456 -8.754010 -9.793700 -91.743365 -1.756096 4.582088 59.514280 3.281541 5.163460 -29.419593 -2.551700 -0.000000 -27.758100 8.190228 0.747488 3.140538 14.542614 7.399813 -96.779154 2.980221 -7.223485 59.851395 -0.388148 3.744640 -17.063066 0.056300 -0.000000 -71.400000
5.140660 14.939909 2.203603 -146.898025 -84.253527 -153.662400 -8.986443 -0.270879 3.473229 -8.632393 -10.418220 -92.592190 -1.562599 4.721252 61.354476 3.401408 5.478597 -30.293131 -2.768100 0.000000 -28.254900 8.144310 0.936524 3.204807 13.572511 7.288688 -97.773946 2.686404 -7.352788 61.811569 -0.473234 3.745984 -18.211587 0.071400 -0.000000 -70.477100
5.065150 14.822709 2.182718 -151.224770 -84.530913 -149.013877 -9.062307 -0.360750 3.547786 -8.525608 -11.084573 -93.470716 -1.359550 4.861731 63.257774 3.520063 5.809640 -31.157552 -2.994900 0.000000 -28.713800 8.083407 1.117061 3.263006 12.605486 7.133608 -98.825595 2.381638 -7.490005 63.869434 -0.582161 3.671436 -19.447966 0.094600 -0.000000 -69.506300
4.990348 14.699769 2.162073 -156.263100 -84.804896 -143.644425 -9.146582 -0.481946 3.617499 -8.419041 -11.767462 -94.380778 -1.148723 5.003043 65.215011 3.636731 6.151242 -32.017608 -3.231900 -0.000000 -29.136300 8.011935 1.275774 3.318525 11.676874 6.963328 -99.925586 2.069022 -7.633636 65.985394 -0.719602 3.490810 -20.742359 0.134200 0.000000 -68.539200
4.916003 14.571786 2.141904 -162.002640 -85.067597 -137.560347 -9.232651 -0.638766 3.681797 -8.306009 -12.457254 -95.317847 -0.931921 5.143379 67.214533 3.752038 6.502193 -32.879215 -3.480400 -0.000000 -29.507500 7.937091 1.403116 3.373188 10.808877 6.788391 -101.072356 1.750194 -7.784308 68.132032 -0.886200 3.192029 -22.068274 0.198801 -0.000000 -67.597999
4.841946 14.439630 2.122475 -168.246060 -85.310162 -130.957572 -9.309705 -0.829928 3.739689 -8.176010 -13.135585 -96.280616 -0.710516 5.282338 69.247796 3.865976 6.858324 -33.746472 -3.740300 0.000000 -29.834800 7.870200 1.495643 3.428476 10.022637 6.626401 -102.257008 1.426378 -7.941516 70.284093 -1.080169 2.773245 -23.399930 0.295899 -0.000000 -66.699900
4.767972 14.304217 2.103949 -174.612437 -85.524182 -124.217198 -9.368043 -1.045785 3.790514 -8.018001 -13.777545 -97.269925 -0.485170 5.421456 71.307680 3.977635 7.212729 -34.619320 -4.009500 0.000000 -30.146400 7.821531 1.559074 3.484762 9.334715 6.498694 -103.464437 1.099025 -8.103009 72.420157 -1.296856 2.245457 -24.713971 0.430000 0.000000 -65.856100
4.693712 14.166434 2.086356 179.403297 -85.701836 -117.843908 -9.405008 -1.270431 3.833988 -7.825791 -14.354920 -98.287213 -0.256043 5.564118 73.386166 4.085282 7.556848 -35.493116 -4.283700 -0.000000 -30.490001 7.794517 1.606247 3.541497 8.752672 6.427635 -104.674558 0.769992 -8.264532 74.523448 -1.528829 1.632304 -25.989163 0.601300 0.000000 -65.080100
4.618955 14.027372 2.069912 174.225011 -85.840671 -112.267033 -9.427091 -1.489240 3.871567 -7.599324 -14.849190 -99.328674 -0.022528 5.713350 75.473514 4.186762 7.883487 -36.359018 -4.557400 -0.000001 -30.888300 7.783513 1.650089 3.596351 8.276356 6.422056 -105.868226 0.441999 -8.422608 76.584776 -1.766023 0.971765 -27.210440 0.804300 0.000000 -64.335900
4.543404 13.887999 2.054266 170.281109 -85.937632 -107.916568 -9.445328 -1.690702 3.902294 -7.345408 -15.237322 -100.387958 0.215353 5.872854 77.557386 4.277805 8.180385 -37.198976 -4.820900 0.000001 -31.429900 7.778699 1.701350 3.647807 7.895939 6.493318 -107.023747 0.117877 -8.572383 78.592359 -1.998509 0.300682 -28.361087 1.029900 0.000001 -63.685899
4.466790 13.749472 2.039685 167.814991 -85.995503 -105.042996 -9.473053 -1.869561 3.928473 -7.067358 -15.511360 -101.455319 0.458568 6.043900 79.625792 4.354756 8.438896 -37.995503 -5.065400 0.000000 -32.132500 7.767989 1.765027 3.692526 7.605536 6.636958 -108.121618 -0.198450 -8.711752 80.540084 -2.215799 -0.337381 -29.432501 1.265100 -0.000000 -63.102300
4.389000 13.612848 2.025695 166.802688 -86.016039 -103.627374 -9.515600 -2.024895 3.948471 -6.779980 -15.672475 -102.512416 0.706289 6.225717 81.662543 4.413932 8.649885 -38.726790 -5.280900 0.000000 -33.048700 7.747391 1.843003 3.728387 7.387607 6.838097 -109.147601 -0.504365 -8.840147 82.420953 -2.408951 -0.906797 -30.416232 1.495600 0.000001 -62.645900
4.309846 13.479233 2.012099 167.138557 -86.001340 -103.569445 -9.574553 -2.156266 3.962138 -6.491485 -15.727861 -103.541343 0.958070 6.415587 83.652018 4.453031 8.808441 -39.374586 -5.460000 -0.000000 -34.183200 7.716434 1.936341 3.752875 7.231693 7.078188 -110.087511 -0.796941 -8.958337 84.228650 -2.571192 -1.378656 -31.309029 1.707401 0.000000 -62.335600
4.229320 13.349607 1.998503 168.531470 -85.954439 -104.582684 -9.644641 -2.265081 3.967350 -6.213256 -15.693058 -104.520852 1.212219 6.608858 85.577568 4.471468 8.913481 -39.926489 -5.598400 0.000000 -35.520700 7.680873 2.044828 3.764180 7.124458 7.333496 -110.933542 -1.074384 -9.068542 85.957260 -2.698598 -1.735385 -32.110920 1.889200 0.000000 -62.200200
4.147377 13.225100 1.984988 170.885944 -85.878004 -106.577492 -9.722898 -2.350391 3.963968 -5.942213 -15.573021 -105.437026 1.467814 6.801469 87.425147 4.469880 8.967772 -40.377725 -5.694900 -0.000000 -37.020800 7.643179 2.169628 3.759913 7.067175 7.595836 -111.672233 -1.334000 -9.171483 87.598203 -2.791058 -1.972079 -32.826725 2.034200 -0.000000 -62.226900
4.064037 13.106656 1.971375 173.921796 -85.776141 -109.277342 -9.801767 -2.414580 3.950340 -5.681121 -15.383034 -106.271344 1.722155 6.987712 89.179633 4.451037 8.979461 -40.732144 -5.753300 0.000001 -38.624400 7.610140 2.308994 3.738962 7.054875 7.850554 -112.297828 -1.574657 -9.268917 89.144363 -2.851273 -2.095376 -33.464763 2.140100 -0.000000 -62.405500
3.979537 12.994999 1.956903 176.930083 -85.657271 -111.975612 -9.869354 -2.470315 3.922578 -5.448373 -15.163168 -106.997293 1.969574 7.160102 90.824287 4.420209 8.963258 -41.002573 -5.783400 0.000000 -40.249501 7.592686 2.452105 3.702421 7.065321 8.062082 -112.823064 -1.798383 -9.364752 90.594213 -2.883591 -2.119471 -34.036466 2.207900 0.000000 -62.735101
3.893863 12.890879 1.941714 179.783110 -85.524597 -114.545349 -9.926260 -2.522149 3.881116 -5.239406 -14.923309 -107.604414 2.206594 7.315705 92.348160 4.382629 8.933848 -41.210508 -5.795900 0.000000 -41.818200 7.588522 2.594221 3.650062 7.098633 8.230042 -113.246400 -2.004352 -9.457936 91.941743 -2.895090 -2.066215 -34.556952 2.243800 0.000000 -63.161900
3.807089 12.794857 1.925453 -177.834254 -85.381357 -116.671387 -9.971784 -2.578144 3.825209 -5.061504 -14.685407 -108.078975 2.428145 7.451713 93.740167 4.344613 8.908164 -41.382215 -5.804200 0.000000 -43.258500 7.596680 2.727476 3.583496 7.142510 8.344863 -113.576835 -2.193423 -9.547957 93.185062 -2.892832 -1.958938 -35.041822 2.255299 0.000000 -63.643500
3.719163 12.707345 1.908156 -175.971464 -85.227040 -118.301099 -10.008386 -2.640410 3.756003 -4.914061 -14.457944 -108.416772 2.630397 7.567476 94.993451 4.311888 8.900852 -41.545374 -5.820499 -0.000000 -44.522500 7.613286 2.848971 3.504792 7.191093 8.411429 -113.820059 -2.365162 -9.632944 94.321481 -2.883525 -1.819408 -35.505968 2.250800 0.000001 -64.131200
3.630032 12.628715 1.889760 -174.627978 -85.060380 -119.431917 -10.037102 -2.709047 3.674731 -4.797747 -14.247313 -108.617681 2.809832 7.662938 96.103113 4.289259 8.923359 -41.724263 -5.855301 0.000000 -45.591500 7.636122 2.957379 3.416944 7.237516 8.436797 -113.982901 -2.518975 -9.711302 95.348543 -2.872318 -1.664664 -35.960884 2.236900 0.000001 -64.588400
3.539460 12.559181 1.870262 -173.712739 -84.879628 -120.148617 -10.058151 -2.781442 3.583756 -4.710923 -14.054001 -108.686434 2.963657 7.738403 97.065971 4.279859 8.982201 -41.935862 -5.915200 0.000000 -46.480700 7.664871 3.053001 3.324270 7.276751 8.431929 -114.071104 -2.653719 -9.781610 96.262955 -2.862164 -1.504490 -36.412349 2.217800 -0.000000 -64.993500
3.447114 12.498974 1.849824 -173.061195 -84.682616 -120.609503 -10.072080 -2.852734 3.486716 -4.648421 -13.872462 -108.632959 3.090174 7.794697 97.880520 4.284423 9.076987 -42.186639 -6.001901 0.000000 -47.234800 7.699592 3.137368 3.231501 7.308255 8.411158 -114.088019 -2.767523 -9.842487 97.059736 -2.853715 -1.341052 -36.858921 2.194499 0.000000 -65.342800
3.352664 12.448436 1.828678 -172.521408 -84.467874 -120.963118 -10.079917 -2.917868 3.388034 -4.604764 -13.694640 -108.468903 3.188372 7.832914 98.544913 4.301539 9.201839 -42.471503 -6.111800 -0.000001 -47.918200 7.740435 3.211443 3.143729 7.333043 8.387168 -114.034772 -2.858188 -9.892492 97.732082 -2.845349 -1.169515 -37.291381 2.164301 -0.000000 -65.652400
3.255509 12.407786 1.807109 -171.956671 -84.236383 -121.339377 -10.083904 -2.972103 3.293407 -4.572593 -13.511251 -108.208007 3.257704 7.854046 99.055838 4.327546 9.344459 -42.773829 -6.236300 -0.000000 -48.603300 7.787271 3.274806 3.066143 7.355056 8.370908 -113.910388 -2.923048 -9.929939 98.270622 -2.833885 -0.980722 -37.693244 2.122500 0.000000 -65.955199
3.155162 12.377475 1.785383 -171.314472 -83.990940 -121.788981 -10.086477 -3.012543 3.207748 -4.547741 -13.316065 -107.860889 3.297736 7.858918 99.408412 4.357484 9.489581 -43.069102 -6.363100 0.000001 -49.353500 7.839457 3.325648 3.003121 7.376645 8.367169 -113.714015 -2.959888 -9.953218 98.665418 -2.815229 -0.764150 -38.043260 2.063000 -0.000000 -66.293500
3.050957 12.357892 1.763854 -170.524170 -83.736183 -122.379148 -10.091478 -3.036167 3.136984 -4.521994 -13.100289 -107.438477 3.308434 7.848153 99.595827 4.385441 9.619498 -43.327591 -6.477200 0.000000 -50.214799 7.895302 3.361589 2.958167 7.405642 8.380997 -113.439305 -2.965758 -9.960041 98.902955 -2.785847 -0.512237 -38.319052 1.981000 0.000000 -66.709800
2.942308 12.349713 1.742626 -169.619391 -83.478128 -123.078808 -10.101278 -3.041982 3.084501 -4.494749 -12.862846 -106.944287 3.289067 7.821630 99.608463 4.406086 9.718841 -43.520183 -6.564700 0.000000 -51.200800 7.953450 3.379641 2.933201 7.444703 8.409141 -113.080375 -2.938677 -9.948366 98.970158 -2.743172 -0.222370 -38.500877 1.874500 0.000000 -67.236000
2.828487 12.353495 1.721951 -168.592407 -83.222495 -123.896438 -10.119267 -3.028324 3.053560 -4.461895 -12.600357 -106.378910 3.239172 7.778850 99.435383 4.415048 9.775928 -43.621960 -6.614000 -0.000000 -52.294400 8.011357 3.377748 2.928625 7.500787 8.450787 -112.625377 -2.876273 -9.915335 98.852041 -2.687095 0.099331 -38.575644 1.745900 0.000000 -67.884700
2.708862 12.369958 1.701844 -167.480915 -82.974902 -124.800319 -10.147381 -2.994320 3.045008 -4.424776 -12.314267 -105.734671 3.157900 7.718649 99.064538 4.410039 9.786109 -43.616650 -6.619000 0.000000 -53.445400 8.066866 3.354431 2.943239 7.578019 8.501227 -112.059687 -2.776806 -9.858090 98.534448 -2.620077 0.438802 -38.541284 1.602500 0.000000 -68.642400
2.582734 12.399953 1.682112 -166.335395 -82.741294 -125.749501 -10.185114 -2.940111 3.056961 -4.387811 -12.008633 -104.996370 3.044121 7.638979 98.482950 4.391129 9.752695 -43.498100 -6.580100 0.000000 -54.580900 8.119244 3.308897 2.974258 7.678031 8.554148 -111.365527 -2.639131 -9.773958 98.004027 -2.547189 0.774826 -38.408106 1.455600 -0.000001 -69.469300
